<svg width="142" height="35" viewBox="0 0 142 35" fill="none" xmlns="http://www.w3.org/2000/svg">
<path d="M1.15648 1.10887C-0.292393 2.55774 -0.292393 4.91534 1.15648 6.36421L1.20732 6.41502L10.8601 16.0678L16.1154 10.8125L6.46267 1.15976L6.41182 1.10887C4.96295 -0.34 2.60535 -0.34 1.15648 1.10887Z" fill="#BCBDBB"/>
<path d="M3.79373 34.865C1.989 34.865 0.438436 33.5623 0.120702 31.783L0 31.1666V29.6478V20.6369H0.0254048V14.1742L0.00632211 8.06734L7.47308 15.5341V20.6369H7.4858V22.162L8.82663 20.8275L28.5008 1.14071H28.5071C28.5071 1.14071 28.5325 1.11525 28.5453 1.09618C30.0068 -0.365395 32.3771 -0.365395 33.8387 1.09618C35.3003 2.55776 35.3003 4.92811 33.8387 6.38969C33.7879 6.43417 33.737 6.48499 33.6925 6.52947L6.43726 33.7784H6.42458C5.89079 34.3058 5.20446 34.6617 4.4546 34.7951C4.23855 34.8332 4.01615 34.8523 3.80009 34.8587H3.78737L3.79373 34.865Z" fill="white"/>
<path d="M28.488 33.7276C28.4118 33.6577 28.3419 33.5751 28.2784 33.4925L18.9751 24.1828L24.2304 18.9339L27.3887 22.0921L34.8682 29.578V30.8997C34.9762 32.965 33.3875 34.7189 31.3223 34.8269C30.261 34.8841 29.2315 34.4837 28.4817 33.7339L28.488 33.7276ZM27.3887 22.0858V15.7629L27.4014 15.7502H27.4205L34.8936 8.30884L34.8745 17.5676V29.5652L27.3951 22.0858H27.3887Z" fill="#BCBDBB"/>
<path d="M129.922 32V17.1523H135.828C139.099 17.1523 140.76 18.7314 140.75 20.9668C140.76 22.71 139.612 23.8071 138.084 24.1455V24.2891C139.755 24.3711 141.334 25.7041 141.345 27.8984C141.334 30.2568 139.571 32 136.218 32H129.922ZM132.998 29.457H135.603C137.387 29.4673 138.156 28.729 138.146 27.6113C138.156 26.3604 137.202 25.4785 135.685 25.4785H132.998V29.457ZM132.998 23.3662H135.377C136.669 23.3765 137.643 22.6484 137.633 21.459C137.643 20.3823 136.843 19.6543 135.438 19.6543H132.998V23.3662Z" fill="white"/>
<path d="M117.33 32H114.008L119.155 17.1523H123.113L128.24 32H124.938L123.821 28.5752H118.448L117.33 32ZM119.227 26.1758H123.042L121.186 20.4951H121.083L119.227 26.1758Z" fill="white"/>
<path d="M102.995 32V17.1523H106.071V29.457H112.47V32H102.995Z" fill="white"/>
<path d="M92.8438 21.3975C92.7207 20.2183 91.7876 19.5312 90.2803 19.5312C88.7217 19.5312 87.8501 20.249 87.8398 21.2334C87.8296 22.3101 88.937 22.792 90.2188 23.0791L91.5518 23.4072C94.0947 23.9917 95.9917 25.2837 96.002 27.7549C95.9917 30.4722 93.8794 32.2153 90.2598 32.2051C86.6709 32.2153 84.3843 30.5542 84.292 27.3652H87.2861C87.3887 28.8623 88.5781 29.6211 90.2188 29.6211C91.8389 29.6211 92.8848 28.8623 92.8848 27.7549C92.8848 26.7397 91.9619 26.2681 90.3418 25.8682L88.7217 25.4785C86.2197 24.8633 84.6816 23.6123 84.6816 21.4385C84.6714 18.7417 87.0503 16.9473 90.3008 16.9473C93.5923 16.9473 95.7559 18.7725 95.7969 21.3975H92.8438Z" fill="white"/>
<path d="M71.7002 32V17.1523H77.5244C80.8979 17.1523 82.8359 19.2339 82.8359 22.1562C82.8359 25.1196 80.8672 27.1602 77.4424 27.1602H74.7764V32H71.7002ZM74.7764 24.6787H76.9502C78.7754 24.6787 79.6675 23.6533 79.6572 22.1562C79.6675 20.6797 78.7754 19.6851 76.9502 19.6748H74.7764V24.6787Z" fill="white"/>
<path d="M62.2051 32H56.9756V17.1523H62.2666C66.7373 17.1523 69.4751 19.9312 69.4648 24.5557C69.4751 29.2007 66.7373 32 62.2051 32ZM60.0518 29.3545H62.082C64.9121 29.3545 66.3887 27.8882 66.3887 24.5557C66.3887 21.2539 64.9121 19.7979 62.1025 19.7979H60.0518V29.3545Z" fill="white"/>
<path d="M47.4805 32H42.251V17.1523H47.542C52.0127 17.1523 54.7505 19.9312 54.7402 24.5557C54.7505 29.2007 52.0127 32 47.4805 32ZM45.3271 29.3545H47.3574C50.1875 29.3545 51.6641 27.8882 51.6641 24.5557C51.6641 21.2539 50.1875 19.7979 47.3779 19.7979H45.3271V29.3545Z" fill="white"/>
<path d="M62.3301 4.22266H63.2969V9.36816C63.2969 10.9688 62.0991 12.1343 60.2676 12.1396C58.4307 12.1343 57.2383 10.9688 57.2383 9.36816V4.22266H58.2051V9.29297C58.1997 10.4209 58.9839 11.2319 60.2676 11.2373C61.5513 11.2319 62.3247 10.4209 62.3301 9.29297V4.22266Z" fill="white"/>
<path d="M49.6006 4.22266H50.707L52.8447 7.83203H52.9414L55.0791 4.22266H56.1963L53.3818 8.80957V12H52.4043V8.80957L49.6006 4.22266Z" fill="white"/>
<path d="M42.5 12V4.22266H43.4668V7.68164H47.5811V4.22266H48.5586V12H47.5811V8.53027H43.4668V12H42.5Z" fill="white"/>
</svg>
